PathFileType  4	(X/Y/Z) C:\Users\antoi\Documents\MyRepositories\mobilecap\ResultsAnalysis
DataRate	CameraRate	NumFrames	NumMarkers	Units	OrigDataRate	OrigDataStartFrame	OrigNumFrames
100.0	100.0	4	51	mm	100.0	346	1383
Frame#	Time	r_knee			r_shank_antsup			r_ankle			r_calc			r_5meta			r_toe			L_knee			L_shank_antsup			L_ankle			L_calc			L_5meta			L_toe			r_sh2			r_sh3			r_sh4			L_sh2			L_sh3			r_thigh1			r_thigh2			r_thigh3			r_thigh4			r_thigh5			L_thigh1			L_thigh2			L_thigh3			L_thigh4			r.ASIS			r.PSIS			L.ASIS			L.PSIS			C7			R_Shoulder			L_Shoulder			R_Sternum			L_Sternum			R_humerus			R_elbow_med			R_elbow_lat			R_forearm			R_wrist_radius			R_wrist_ulna			L_humerus			L_elbow_med			L_elbow_lat			L_forearm			L_wrist_radius			L_wrist_ulna			R_HJC			L_HJC			R_HJC_reg			L_HJC_reg			
		X1	Y1	Z1	X2	Y2	Z2	X3	Y3	Z3	X4	Y4	Z4	X5	Y5	Z5	X6	Y6	Z6	X7	Y7	Z7	X8	Y8	Z8	X9	Y9	Z9	X10	Y10	Z10	X11	Y11	Z11	X12	Y12	Z12	X13	Y13	Z13	X14	Y14	Z14	X15	Y15	Z15	X16	Y16	Z16	X17	Y17	Z17	X18	Y18	Z18	X19	Y19	Z19	X20	Y20	Z20	X21	Y21	Z21	X22	Y22	Z22	X23	Y23	Z23	X24	Y24	Z24	X25	Y25	Z25	X26	Y26	Z26	X27	Y27	Z27	X28	Y28	Z28	X29	Y29	Z29	X30	Y30	Z30	X31	Y31	Z31	X32	Y32	Z32	X33	Y33	Z33	X34	Y34	Z34	X35	Y35	Z35	X36	Y36	Z36	X37	Y37	Z37	X38	Y38	Z38	X39	Y39	Z39	X40	Y40	Z40	X41	Y41	Z41	X42	Y42	Z42	X43	Y43	Z43	X44	Y44	Z44	X45	Y45	Z45	X46	Y46	Z46	X47	Y47	Z47	X48	Y48	Z48	X49	Y49	Z49	X50	Y50	Z50	X51	Y51	Z51	

346	3.45000000	-260.71104	458.37644	-428.98465	-234.39251	394.17877	-399.14095	-279.20978	95.50772	-422.79266	-345.13811	56.48439	-462.23090	-175.93077	48.15993	-395.01841	-132.94149	71.07915	-447.55887	-265.07893	455.36925	-819.24321	-217.90931	394.52962	-828.04301	-272.77207	94.34780	-806.18882	-341.25805	57.88639	-759.42980	-178.96518	46.15899	-832.19867	-130.92197	71.43101	-778.15697	-241.86095	283.67566	-390.80053	-307.19764	397.37066	-415.32216	-322.91371	281.99207	-410.68919	-305.77712	404.88287	-843.33526	-306.80589	282.33438	-844.24110	-541.35578	572.92085	-487.78616	-432.24337	564.35787	-462.24780	-422.04422	525.08419	-410.14531	-564.09534	492.88019	-410.31320	-448.49447	474.79227	-401.32170	-533.92235	558.49011	-792.47753	-396.29543	550.01726	-800.90064	-547.38154	447.52226	-826.96925	-405.37073	446.70566	-833.50712	-588.31341	592.14009	-497.03862	-767.79859	560.01618	-568.39207	-590.33515	586.18921	-749.82259	-770.02879	552.30103	-675.88789	-609.92019	1026.36357	-615.03558	-555.26492	964.20248	-464.11299	-567.76810	968.54657	-781.78713	-506.53744	920.36841	-601.41724	-509.25547	921.02388	-647.51858	-615.69469	746.49794	-365.00496	-663.27191	640.49411	-416.99121	-655.65585	674.07346	-342.06523	-541.28448	686.08653	-352.42385	-431.49951	695.72048	-377.69342	-427.98784	651.14714	-370.64743	-571.40663	839.31390	-840.38632	-657.51604	633.57307	-809.19955	-664.96450	651.64530	-879.88725	-553.27643	670.05408	-890.59983	-436.53593	685.23821	-871.62155	-430.07676	648.79960	-877.77490	-631.06000	501.73686	-521.36859	-629.35852	500.14508	-721.64702	-627.57667	502.13996	-525.39253	-631.02945	490.19570	-691.81791	
347	3.46000000	-260.93697	458.37802	-429.51663	-234.64834	394.22916	-399.46194	-279.21686	95.52891	-422.86642	-345.14446	56.48295	-462.25778	-175.88201	48.19770	-395.06199	-132.91194	71.08545	-447.62147	-265.23293	455.41165	-818.56169	-217.92880	394.68499	-827.69630	-272.63605	94.73616	-806.78473	-341.30361	57.85765	-759.49904	-178.96524	46.13899	-831.97013	-131.06128	71.54853	-778.11490	-242.06125	283.68760	-391.02758	-307.37320	397.30950	-415.67256	-323.16430	281.86302	-411.07335	-305.82574	404.96792	-842.83753	-306.66441	282.63281	-844.26866	-541.58321	572.86665	-487.35306	-432.30736	564.36164	-461.88141	-421.96565	525.20307	-410.28040	-564.19024	493.00229	-410.25193	-448.56167	474.86345	-401.56871	-533.95477	558.64164	-792.41616	-396.32082	550.09079	-800.49019	-547.46997	447.72224	-826.80379	-405.35310	446.79696	-833.26001	-586.83203	590.83479	-496.42599	-767.04931	561.72636	-568.38559	-588.82736	585.60971	-749.86290	-769.43488	554.03312	-675.99503	-597.56196	1024.59215	-615.05600	-545.09477	960.78505	-464.59117	-557.17516	965.80280	-781.50075	-497.54312	916.02795	-601.80724	-499.82035	916.58946	-647.64280	-610.47255	745.18801	-364.63050	-660.60609	640.25017	-416.20056	-652.17636	673.80359	-341.48458	-537.59448	683.13683	-351.88126	-427.67708	690.19040	-377.09938	-425.19740	645.58171	-369.81128	-563.26279	836.75814	-840.35326	-653.55008	632.71196	-809.73659	-660.66005	650.99864	-879.80206	-548.69916	667.46993	-891.10140	-431.51011	680.28996	-872.35628	-425.86401	643.79322	-878.66095	-631.14297	501.15607	-521.38724	-629.29253	500.03278	-721.66756	-627.60298	501.69138	-524.86696	-631.30169	489.76438	-691.70920	
348	3.47000000	-261.13270	458.36540	-429.99297	-234.88291	394.32310	-399.73881	-279.20007	95.57231	-422.89805	-345.16553	56.48540	-462.30834	-175.83862	48.21461	-395.07652	-132.88144	71.05802	-447.66611	-265.36618	455.45865	-817.89037	-218.01976	394.78113	-827.12512	-272.41053	95.38977	-807.82950	-341.37871	57.79731	-759.56120	-178.98928	46.14177	-831.71285	-131.26272	71.64309	-778.07481	-242.52558	283.73370	-391.28560	-307.68403	397.24007	-416.08454	-323.31970	281.90911	-411.26829	-305.88527	405.08688	-842.30401	-306.47363	282.85412	-844.31076	-541.72477	573.07163	-487.15180	-432.39582	564.44155	-461.75360	-421.89415	525.31863	-410.42030	-564.23130	493.14343	-410.32189	-448.66106	474.98103	-401.80334	-533.93734	558.78425	-792.34327	-396.34307	550.10464	-800.01701	-547.54945	447.91896	-826.68601	-405.37775	446.90003	-833.06199	-585.12726	590.17460	-496.26821	-766.29236	563.56251	-568.46940	-587.14079	585.12749	-749.84752	-768.78233	555.87900	-676.09452	-584.58497	1022.46526	-615.20223	-534.30365	957.17593	-465.15678	-546.10177	962.58563	-780.83715	-488.39752	911.18196	-602.44834	-489.88471	911.68792	-647.72184	-605.08775	743.88451	-364.21271	-657.65346	639.99250	-415.51714	-648.60399	673.59382	-340.70390	-533.84786	680.16408	-351.30497	-423.78255	684.50362	-376.41524	-422.34363	639.93478	-368.92850	-554.75146	833.97367	-840.24545	-649.51886	631.76129	-810.24420	-656.24995	650.35866	-879.83136	-544.00199	664.82880	-891.62029	-426.54361	675.26019	-873.21548	-421.59618	638.75716	-879.66955	-630.99664	501.08848	-521.40345	-629.05669	500.05041	-721.68369	-627.28614	501.66333	-524.71215	-631.14788	489.74639	-691.64354	
349	3.48000000	-261.26694	458.32333	-430.38513	-235.12489	394.47869	-399.97771	-279.17226	95.60565	-422.90654	-345.16543	56.49498	-462.34320	-175.86411	48.19447	-395.11248	-132.87779	70.98913	-447.69199	-265.46299	455.55097	-817.35701	-218.20366	394.79855	-826.35555	-272.33406	95.72990	-808.32672	-341.46780	57.75438	-759.58549	-179.01090	46.14266	-831.48301	-131.43387	71.71156	-777.98972	-243.01783	283.83353	-391.59180	-308.00221	397.22810	-416.44882	-323.45903	282.04490	-411.37058	-305.99761	405.19631	-841.77126	-306.45078	282.96764	-844.18927	-541.77535	573.45203	-487.12133	-432.53124	564.38347	-461.68025	-421.88374	525.41087	-410.58547	-564.27521	493.49216	-410.33304	-448.77053	475.11156	-401.97140	-533.90024	558.99802	-792.21525	-396.34201	550.09449	-799.50699	-547.59288	448.08560	-826.63282	-405.44527	447.02888	-832.82159	-583.57451	589.98279	-496.40778	-765.48030	565.54069	-568.65948	-585.81961	584.51938	-749.83890	-768.05105	557.83713	-676.24322	-570.90150	1019.96612	-615.48231	-522.69782	953.60741	-465.29121	-534.47861	959.01351	-780.27216	-478.49230	905.24075	-602.36563	-479.54730	906.28087	-647.60671	-599.57140	742.48353	-363.81175	-654.54521	639.65990	-414.91032	-644.91679	673.40340	-339.99719	-530.05863	677.14490	-350.62888	-419.81760	678.70781	-375.69209	-419.44824	634.14520	-368.08263	-545.96008	830.97750	-840.15505	-645.42857	630.54766	-810.74707	-651.67989	649.80203	-880.16571	-539.19945	662.07430	-892.16546	-421.55349	670.11157	-874.20737	-417.28129	633.52933	-880.65041	-630.87295	501.42288	-521.40707	-628.92797	500.05811	-721.68515	-627.01056	501.86335	-524.78467	-630.99688	489.91733	-691.62008	
